HIERARCHY
ROOT Hips
{
	OFFSET 0.000000 0.000000 0.000000
	CHANNELS 6 Xposition Yposition Zposition Zrotation Yrotation Xrotation 
	JOINT LHipJoint
	{
		OFFSET 0.000000 0.000000 0.000000
		CHANNELS 3 Zrotation Yrotation Xrotation
		JOINT LeftUpLeg
		{
			OFFSET 1.363060 -1.794630 0.839290
			CHANNELS 3 Zrotation Yrotation Xrotation
			JOINT LeftLeg
			{
				OFFSET 2.448110 -6.726130 0.000000
				CHANNELS 3 Zrotation Yrotation Xrotation
				JOINT LeftFoot
				{
					OFFSET 2.562200 -7.039590 0.000000
					CHANNELS 3 Zrotation Yrotation Xrotation
					JOINT LeftToeBase
					{
						OFFSET 0.157640 -0.433110 2.322550
						CHANNELS 3 Zrotation Yrotation Xrotation
						End Site
						{
							OFFSET 0.000000 0.000000 0.000000
						}
					}
				}
			}
		}
	}
	JOINT RHipJoint
	{
		OFFSET 0.000000 0.000000 0.000000
		CHANNELS 3 Zrotation Yrotation Xrotation
		JOINT RightUpLeg
		{
			OFFSET -1.305520 -1.794630 0.839290
			CHANNELS 3 Zrotation Yrotation Xrotation
			JOINT RightLeg
			{
				OFFSET -2.542530 -6.985550 0.000000
				CHANNELS 3 Zrotation Yrotation Xrotation
				JOINT RightFoot
				{
					OFFSET -2.568260 -7.056230 0.000000
					CHANNELS 3 Zrotation Yrotation Xrotation
					JOINT RightToeBase
					{
						OFFSET -0.164730 -0.452590 2.363150
						CHANNELS 3 Zrotation Yrotation Xrotation
						End Site
						{
							OFFSET 0.000000 0.000000 0.000000
						}
					}
				}
			}
		}
	}
	JOINT LowerBack
	{
		OFFSET 0.000000 0.000000 0.000000
		CHANNELS 3 Zrotation Yrotation Xrotation
		JOINT Spine
		{
			OFFSET 0.028270 2.035590 -0.193380
			CHANNELS 3 Zrotation Yrotation Xrotation
			JOINT Spine1
			{
				OFFSET 0.056720 2.048850 -0.042750
				CHANNELS 3 Zrotation Yrotation Xrotation
				JOINT Neck
				{
					OFFSET 0.000000 0.000000 0.000000
					CHANNELS 3 Zrotation Yrotation Xrotation
					JOINT Neck1
					{
						OFFSET -0.054170 1.746240 0.172020
						CHANNELS 3 Zrotation Yrotation Xrotation
						JOINT Head
						{
							OFFSET 0.104070 1.761360 -0.123970
							CHANNELS 3 Zrotation Yrotation Xrotation
							End Site
							{
								OFFSET 0.000000 0.000000 0.000000
							}
						}
					}
				}
				JOINT LeftShoulder
				{
					OFFSET 0.000000 0.000000 0.000000
					CHANNELS 3 Zrotation Yrotation Xrotation
					JOINT LeftArm
					{
						OFFSET 3.362410 1.200890 -0.311210
						CHANNELS 3 Zrotation Yrotation Xrotation
						JOINT LeftForeArm
						{
							OFFSET 4.983000 -0.000000 -0.000000
							CHANNELS 3 Zrotation Yrotation Xrotation
							JOINT LeftHand
							{
								OFFSET 3.483560 -0.000000 -0.000000
								CHANNELS 3 Zrotation Yrotation Xrotation
								JOINT LeftFingerBase
								{
									OFFSET 0.000000 0.000000 0.000000
									CHANNELS 3 Zrotation Yrotation Xrotation
									JOINT LeftHandIndex1
									{
										OFFSET 0.715260 -0.000000 -0.000000
										CHANNELS 3 Zrotation Yrotation Xrotation
										End Site
										{
											OFFSET 0.000000 0.000000 0.000000
										}
									}
								}
								JOINT LThumb
								{
									OFFSET 0.000000 0.000000 0.000000
									CHANNELS 3 Zrotation Yrotation Xrotation
									End Site
									{
										OFFSET 0.000000 0.000000 0.000000
									}
								}
							}
						}
					}
				}
				JOINT RightShoulder
				{
					OFFSET 0.000000 0.000000 0.000000
					CHANNELS 3 Zrotation Yrotation Xrotation
					JOINT RightArm
					{
						OFFSET -3.136600 1.374050 -0.404650
						CHANNELS 3 Zrotation Yrotation Xrotation
						JOINT RightForeArm
						{
							OFFSET -5.241900 -0.000000 -0.000000
							CHANNELS 3 Zrotation Yrotation Xrotation
							JOINT RightHand
							{
								OFFSET -3.444170 -0.000000 -0.000000
								CHANNELS 3 Zrotation Yrotation Xrotation
								JOINT RightFingerBase
								{
									OFFSET 0.000000 0.000000 0.000000
									CHANNELS 3 Zrotation Yrotation Xrotation
									JOINT RightHandIndex1
									{
										OFFSET -0.622530 -0.000000 -0.000000
										CHANNELS 3 Zrotation Yrotation Xrotation
										End Site
										{
											OFFSET 0.000000 0.000000 0.000000
										}
									}
								}
								JOINT RThumb
								{
									OFFSET 0.000000 0.000000 0.000000
									CHANNELS 3 Zrotation Yrotation Xrotation
									End Site
									{
										OFFSET 0.000000 0.000000 0.000000
									}
								}
							}
						}
					}
				}
			}
		}
	}
}
MOTION
Frames: 6
Frame Time: 0.008333
-1.997358 16.944296 -1.581234 -173.011047 87.286327 -164.686861 -10.874508 4.773025 0.868757 -18.791647 2.924267 -2.771946 -1.914615 2.463568 32.090021 -0.188452 -4.901582 1.619060 -0.562500 -0.000000 -38.130500 8.673947 0.072658 3.704536 4.269787 8.491780 -31.267096 2.538918 -0.675930 17.593357 1.344591 9.075292 4.401899 1.466099 0.000000 -59.515100 1.974329 -7.393411 -4.865742 0.466006 -7.718883 -3.478974 -5.569612 -7.787002 1.011604 11.257034 -20.886208 -10.615745 -2.873186 -0.192539 -0.686723 0.000000 0.000000 0.000000 1.374908 6.790935 -0.579412 -69.652796 6.734910 4.582877 -0.907513 -82.475435 -0.078266 16.036530 -3.036173 -0.480282 -0.221751 0.346813 -0.000000 0.000000 0.000000 0.000000 0.000000 0.000000 0.000000 15.026359 -18.960269 -0.805261 66.036769 -4.635532 -8.797515 0.857071 67.782093 -0.016648 -10.946255 8.126363 -0.815324 0.185065 -0.241099 0.000000 0.000000 0.000000 0.000000 0.000000 0.000000 0.000000 
-1.834775 16.943968 -1.636991 -168.026574 86.733603 -159.871544 -11.271530 4.861030 0.682934 -18.025726 4.973456 -4.056569 -1.607740 2.601126 34.606900 -0.042812 -3.820903 2.969144 -0.539500 0.000001 -40.751600 8.535817 -0.185868 3.604089 5.109520 7.414159 -31.038887 2.613541 -0.745670 18.174142 1.362405 9.247829 4.405806 1.502300 -0.000000 -57.741000 2.192057 -7.255335 -4.713179 0.469089 -7.595499 -3.456724 -5.669170 -7.658450 1.020690 11.422747 -20.644737 -10.641816 -2.896792 -0.194260 -0.696174 0.000000 0.000000 0.000000 1.012531 7.310392 -0.499027 -70.448196 7.028681 4.686753 -0.941406 -80.935979 -0.075212 16.216482 -3.165103 -0.502458 -0.222115 0.333472 0.000000 0.000000 0.000000 0.000000 0.000000 0.000000 0.000000 15.293192 -18.615027 -0.888787 66.348625 -3.862851 -8.539131 0.829218 68.071937 -0.018479 -11.077211 8.088656 -0.821819 0.184578 -0.246922 0.000000 0.000000 0.000000 0.000000 0.000000 0.000000 0.000000 
-1.676425 16.944106 -1.692475 -163.886189 86.095659 -155.905046 -11.615271 4.924225 0.448498 -17.239275 7.162712 -5.456532 -1.284976 2.724262 37.249365 0.163876 -2.151144 4.266104 -0.378200 0.000000 -42.638600 8.425308 -0.434143 3.521711 5.937102 6.386237 -30.767563 2.695845 -0.804538 18.689772 1.374348 9.394932 4.241423 1.510600 -0.000000 -55.790300 2.437919 -7.096900 -4.529212 0.472309 -7.452839 -3.427427 -5.780727 -7.509834 1.035122 11.603767 -20.396829 -10.679846 -2.920283 -0.195723 -0.709571 0.000000 0.000000 0.000000 0.666351 7.870049 -0.414412 -71.232068 7.293216 4.748010 -0.978074 -79.297952 -0.072031 16.427628 -3.307805 -0.527941 -0.222286 0.319471 0.000000 0.000000 0.000000 0.000000 0.000000 0.000000 0.000000 15.577446 -18.248558 -0.973777 66.744034 -3.040222 -8.195609 0.801554 68.360159 -0.020337 -11.182848 8.055524 -0.826814 0.183708 -0.253158 0.000000 0.000000 0.000000 0.000000 0.000000 0.000000 0.000000 
-1.522348 16.944602 -1.747440 -160.591114 85.391287 -152.783110 -11.907891 4.958679 0.171111 -16.450846 9.429821 -6.949548 -0.965766 2.833989 39.980524 0.435305 0.135499 5.359809 -0.030000 0.000000 -42.870200 8.336945 -0.665517 3.460059 6.728619 5.450577 -30.442833 2.779666 -0.849538 19.135755 1.377012 9.477470 3.945101 1.486400 0.000000 -53.763299 2.698569 -6.914279 -4.320773 0.473485 -7.286033 -3.392525 -5.903172 -7.336555 1.053662 11.795104 -20.144086 -10.728620 -2.943467 -0.196936 -0.726501 0.000000 0.000000 0.000000 0.334501 8.463787 -0.326609 -71.985576 7.534737 4.770178 -1.016901 -77.586646 -0.068714 16.670979 -3.457404 -0.555931 -0.222161 0.304779 0.000000 0.000000 0.000000 0.000000 0.000000 0.000000 0.000000 15.871251 -17.859168 -1.058687 67.217616 -2.173643 -7.765604 0.774182 68.653767 -0.022212 -11.263684 8.034937 -0.831307 0.182537 -0.259943 0.000000 0.000000 0.000000 0.000000 0.000000 0.000000 0.000000 
-1.372453 16.945429 -1.801806 -158.105981 84.627246 -150.463391 -12.153403 4.959958 -0.140136 -15.674670 11.703964 -8.513712 -0.672600 2.933678 42.766261 0.766419 2.971941 6.037615 0.509801 0.000000 -40.213800 8.263315 -0.877797 3.420851 7.465569 4.634692 -30.060002 2.859097 -0.878927 19.505394 1.366186 9.452704 3.555265 1.426900 0.000000 -51.773700 2.961238 -6.707424 -4.097434 0.470735 -7.094154 -3.354152 -6.034832 -7.137919 1.074670 11.990553 -19.885710 -10.785729 -2.966576 -0.197964 -0.746194 0.000000 0.000000 0.000000 0.014517 9.083278 -0.236340 -72.692253 7.759080 4.760077 -1.057051 -75.826718 -0.065278 16.946326 -3.605792 -0.585328 -0.221653 0.289399 -0.000000 0.000000 0.000000 0.000000 0.000000 0.000000 0.000000 16.166821 -17.444882 -1.142540 67.759862 -1.274136 -7.253046 0.747057 68.960066 -0.024091 -11.321840 8.033498 -0.836096 0.181141 -0.267378 0.000000 0.000000 0.000000 0.000000 0.000000 0.000000 0.000000 
-1.226444 16.946636 -1.855591 -156.379581 83.799874 -148.887211 -12.354474 4.927169 -0.472662 -14.920485 13.910923 -10.125194 -0.425898 3.029512 45.558181 1.141984 6.189066 6.082633 1.166400 -0.000000 -33.779799 8.198856 -1.070705 3.403382 8.135773 3.949373 -29.618312 2.929145 -0.892161 19.791972 1.337475 9.281073 3.106496 1.332101 -0.000000 -49.938200 3.216143 -6.478470 -3.869891 0.462899 -6.878891 -3.314847 -6.173771 -6.915831 1.096026 12.183250 -19.619103 -10.847529 -2.990057 -0.198912 -0.767534 0.000000 0.000000 0.000000 -0.295179 9.716744 -0.144283 -73.338300 7.973504 4.726325 -1.097431 -74.042838 -0.061732 17.252348 -3.743829 -0.614830 -0.220688 0.273366 -0.000000 0.000000 0.000000 0.000000 0.000000 0.000000 0.000000 16.456090 -17.003761 -1.224495 68.357793 -0.354705 -6.666895 0.720062 69.284570 -0.025976 -11.361937 8.055652 -0.841982 0.179599 -0.275522 0.000000 0.000000 0.000000 0.000000 0.000000 0.000000 0.000000 
